# xmcd
#
# Track frame offsets: 
#        150
#        13208
#        29894
#        43561
#        67162
#        100048
#        119080
#        136639
#        160283
#        179355
#        219929
#        246487
#
# Disc length: 4226 seconds
#
# Revision: 0
# Processed by: cddbd v1.5.2PL0 Copyright (c) Steve Scherf et al.
# Submitted via: ExactAudioCopy v0.99pb5
#
DISCID=b110800c
DTITLE=Koivuniemen Herrat - Sokeat Johdattaa
DYEAR=2010
DGENRE=Rap
TTITLE0=Perusteemat
TTITLE1=Ropoja (feat. MacBueno)
TTITLE2=Magista ja Gambinaa
TTITLE3=Istu Alas
TTITLE4=Pullotettu (The Bottle)
TTITLE5=Herrat Avautuu
TTITLE6=Alennustilassa (feat. Konna)
TTITLE7=Ikuisesti Nuoria
TTITLE8=Musta Mieli (feat. Adebizi and Konna)
TTITLE9=Linnut
TTITLE10=Sokeat Johdattaa (feat. Masa Halme)
TTITLE11=Bonus
EXTD=
EXTT0=
EXTT1=
EXTT2=
EXTT3=
EXTT4=
EXTT5=
EXTT6=
EXTT7=
EXTT8=
EXTT9=
EXTT10=
EXTT11=
PLAYORDER=
